<svg width="876" height="645" viewBox="0 0 876 645" fill="none" xmlns="http://www.w3.org/2000/svg">
<mask id="mask0_260_40247" style="mask-type:alpha" maskUnits="userSpaceOnUse" x="16" y="16" width="840" height="605">
<path d="M856 96C856 51.8172 820.183 16 776 16L96.0001 16.0001C51.8173 16.0001 16.0001 51.8174 16.0001 96.0001L16.0001 603C16.0001 612.941 24.059 621 34.0001 621L838 621C847.941 621 856 612.941 856 603L856 96Z" fill="white"/>
</mask>
<g mask="url(#mask0_260_40247)">
<g opacity="0.7" filter="url(#filter0_f_260_40247)">
<mask id="mask1_260_40247" style="mask-type:alpha" maskUnits="userSpaceOnUse" x="-543" y="-37" width="2693" height="2201">
<path d="M-541.934 -35.9453H2149.5V2163.15H-541.934V-35.9453Z" fill="white" stroke="url(#paint0_linear_260_40247)"/>
</mask>
<g mask="url(#mask1_260_40247)">
<g filter="url(#filter1_f_260_40247)">
<g filter="url(#filter2_f_260_40247)">
<path fill-rule="evenodd" clip-rule="evenodd" d="M719.802 719.66C717.295 867.368 811.019 1025.92 732.709 1140.65C643.712 1271.04 473.419 1338.41 344.695 1269.24C225.894 1205.41 250.198 1004.98 207.628 858.52C175.513 748.027 106.37 650.381 132.021 537.526C163.98 396.915 238.15 265.271 353.583 216.366C484.747 160.796 656.283 151.641 747.37 276.822C833.078 394.61 722.445 563.965 719.802 719.66Z" fill="#6D42F2"/>
</g>
<g filter="url(#filter3_f_260_40247)">
<path fill-rule="evenodd" clip-rule="evenodd" d="M1333.95 583.082C1331.44 730.79 1425.07 889.337 1346.84 1004.07C1257.93 1134.46 1087.81 1201.83 959.21 1132.66C840.527 1068.83 864.807 868.405 822.279 721.942C790.196 611.449 721.121 513.803 746.746 400.948C778.674 260.337 852.771 128.693 968.09 79.7876C1099.12 24.2176 1270.49 15.0631 1361.49 140.243C1447.11 258.032 1336.59 427.387 1333.95 583.082Z" fill="#6D42F2"/>
</g>
<g filter="url(#filter4_f_260_40247)">
<path fill-rule="evenodd" clip-rule="evenodd" d="M601.115 454.176C598.608 601.884 692.332 760.431 614.022 875.165C525.025 1005.56 354.731 1072.92 226.007 1003.76C107.207 939.924 131.51 739.499 88.9408 593.036C56.8259 482.543 -12.3173 384.896 13.3334 272.041C45.2927 131.431 119.463 -0.213402 234.896 -49.1187C366.059 -104.689 537.596 -113.843 628.683 11.3372C714.391 129.126 603.757 298.48 601.115 454.176Z" fill="#6D42F2"/>
</g>
<g filter="url(#filter5_f_260_40247)">
<path fill-rule="evenodd" clip-rule="evenodd" d="M399.213 398.168C396.706 545.876 490.429 704.423 412.119 819.157C323.123 949.549 152.829 1016.91 24.1048 947.749C-94.6956 883.917 -70.392 683.491 -112.962 537.028C-145.076 426.535 -214.22 328.888 -188.569 216.034C-156.61 75.423 -82.4394 -56.2212 32.9934 -105.127C164.157 -160.696 335.694 -169.851 426.78 -44.6706C512.489 73.1183 401.855 242.473 399.213 398.168Z" fill="#6D42F2"/>
</g>
<g filter="url(#filter6_f_260_40247)">
<path fill-rule="evenodd" clip-rule="evenodd" d="M1162.06 86.6237C1111.32 272.351 854.47 142.355 711.349 238.194C621.612 298.286 630.242 527.504 528.175 511.096C428.323 495.044 468.759 300.246 425.254 192.202C382.019 84.8291 268.587 16.8511 281.637 -101.174C299.431 -262.105 367.724 -444.331 500.055 -484.312C633.758 -524.708 739.398 -369.517 851.06 -273.214C974.253 -166.968 1209.07 -85.4592 1162.06 86.6237Z" fill="#1A298E"/>
</g>
<g filter="url(#filter7_f_260_40247)">
<path fill-rule="evenodd" clip-rule="evenodd" d="M1463.56 -24.7657C1445.87 70.4663 1324.36 72.1481 1262.6 139.827C1203.07 205.067 1198.33 335.554 1117.24 354.761C1032.68 374.79 938.735 311.245 894.98 226.902C855.718 151.219 925.798 62.7921 920.352 -24.7657C913.958 -127.572 816.417 -224.909 861.302 -314.568C907.742 -407.334 1023.29 -425.42 1117.24 -418.059C1205.48 -411.145 1277.6 -347.979 1340.05 -277.057C1402.38 -206.273 1481.74 -122.583 1463.56 -24.7657Z" fill="#2653B0"/>
</g>
<g filter="url(#filter8_f_260_40247)">
<path fill-rule="evenodd" clip-rule="evenodd" d="M1272.69 993.132C1273.21 1126.73 1177.22 1225.72 1069.49 1263.12C972.149 1296.92 873.374 1248.11 810.136 1153.74C734.817 1041.35 669.841 888.894 740.679 772.442C811.705 655.679 953.048 683.386 1067.4 730.821C1172.2 774.294 1272.17 861.006 1272.69 993.132Z" fill="#5FCEF6"/>
</g>
<g filter="url(#filter9_f_260_40247)">
<path fill-rule="evenodd" clip-rule="evenodd" d="M1743.5 164.524C1740.99 312.334 1834.71 470.989 1756.4 585.802C1667.41 716.283 1497.11 783.693 1368.39 714.481C1249.59 650.606 1273.89 450.042 1231.32 303.479C1199.21 192.91 1130.07 95.1971 1155.72 -17.7351C1187.68 -158.442 1261.85 -290.177 1377.28 -339.115C1508.44 -394.723 1679.98 -403.884 1771.07 -278.618C1856.77 -160.748 1746.14 8.72189 1743.5 164.524Z" fill="#6D42F2"/>
</g>
</g>
</g>
</g>
</g>
<defs>
<filter id="filter0_f_260_40247" x="-1194.16" y="-1036.45" width="3997.72" height="3333.3" filterUnits="userSpaceOnUse" color-interpolation-filters="sRGB">
<feFlood flood-opacity="0" result="BackgroundImageFix"/>
<feBlend mode="normal" in="SourceGraphic" in2="BackgroundImageFix" result="shape"/>
<feGaussianBlur stdDeviation="500" result="effect1_foregroundBlur_260_40247"/>
</filter>
<filter id="filter1_f_260_40247" x="-394.158" y="-690.883" width="2397.72" height="2187.74" filterUnits="userSpaceOnUse" color-interpolation-filters="sRGB">
<feFlood flood-opacity="0" result="BackgroundImageFix"/>
<feBlend mode="normal" in="SourceGraphic" in2="BackgroundImageFix" result="shape"/>
<feGaussianBlur stdDeviation="100" result="effect1_foregroundBlur_260_40247"/>
</filter>
<filter id="filter2_f_260_40247" x="-173.568" y="-122.586" width="1253.44" height="1719.44" filterUnits="userSpaceOnUse" color-interpolation-filters="sRGB">
<feFlood flood-opacity="0" result="BackgroundImageFix"/>
<feBlend mode="normal" in="SourceGraphic" in2="BackgroundImageFix" result="shape"/>
<feGaussianBlur stdDeviation="150" result="effect1_foregroundBlur_260_40247"/>
</filter>
<filter id="filter3_f_260_40247" x="441.162" y="-259.164" width="1252.79" height="1719.44" filterUnits="userSpaceOnUse" color-interpolation-filters="sRGB">
<feFlood flood-opacity="0" result="BackgroundImageFix"/>
<feBlend mode="normal" in="SourceGraphic" in2="BackgroundImageFix" result="shape"/>
<feGaussianBlur stdDeviation="150" result="effect1_foregroundBlur_260_40247"/>
</filter>
<filter id="filter4_f_260_40247" x="-292.256" y="-388.07" width="1253.44" height="1719.44" filterUnits="userSpaceOnUse" color-interpolation-filters="sRGB">
<feFlood flood-opacity="0" result="BackgroundImageFix"/>
<feBlend mode="normal" in="SourceGraphic" in2="BackgroundImageFix" result="shape"/>
<feGaussianBlur stdDeviation="150" result="effect1_foregroundBlur_260_40247"/>
</filter>
<filter id="filter5_f_260_40247" x="-494.158" y="-444.078" width="1253.44" height="1719.44" filterUnits="userSpaceOnUse" color-interpolation-filters="sRGB">
<feFlood flood-opacity="0" result="BackgroundImageFix"/>
<feBlend mode="normal" in="SourceGraphic" in2="BackgroundImageFix" result="shape"/>
<feGaussianBlur stdDeviation="150" result="effect1_foregroundBlur_260_40247"/>
</filter>
<filter id="filter6_f_260_40247" x="-19.4023" y="-790.883" width="1487.59" height="1602.82" filterUnits="userSpaceOnUse" color-interpolation-filters="sRGB">
<feFlood flood-opacity="0" result="BackgroundImageFix"/>
<feBlend mode="normal" in="SourceGraphic" in2="BackgroundImageFix" result="shape"/>
<feGaussianBlur stdDeviation="150" result="effect1_foregroundBlur_260_40247"/>
</filter>
<filter id="filter7_f_260_40247" x="549.535" y="-719.531" width="1216.67" height="1378.01" filterUnits="userSpaceOnUse" color-interpolation-filters="sRGB">
<feFlood flood-opacity="0" result="BackgroundImageFix"/>
<feBlend mode="normal" in="SourceGraphic" in2="BackgroundImageFix" result="shape"/>
<feGaussianBlur stdDeviation="150" result="effect1_foregroundBlur_260_40247"/>
</filter>
<filter id="filter8_f_260_40247" x="410.203" y="389.945" width="1162.48" height="1183.89" filterUnits="userSpaceOnUse" color-interpolation-filters="sRGB">
<feFlood flood-opacity="0" result="BackgroundImageFix"/>
<feBlend mode="normal" in="SourceGraphic" in2="BackgroundImageFix" result="shape"/>
<feGaussianBlur stdDeviation="150" result="effect1_foregroundBlur_260_40247"/>
</filter>
<filter id="filter9_f_260_40247" x="850.127" y="-678.094" width="1253.44" height="1720.21" filterUnits="userSpaceOnUse" color-interpolation-filters="sRGB">
<feFlood flood-opacity="0" result="BackgroundImageFix"/>
<feBlend mode="normal" in="SourceGraphic" in2="BackgroundImageFix" result="shape"/>
<feGaussianBlur stdDeviation="150" result="effect1_foregroundBlur_260_40247"/>
</filter>
<linearGradient id="paint0_linear_260_40247" x1="2188.16" y1="786.401" x2="1516.53" y2="2451.19" gradientUnits="userSpaceOnUse">
<stop stop-color="white"/>
<stop offset="1" stop-color="white" stop-opacity="0.6"/>
</linearGradient>
</defs>
</svg>
