<svg width="1582" height="868" viewBox="0 0 1582 868" fill="none" xmlns="http://www.w3.org/2000/svg">
<mask id="mask0_60_47872" style="mask-type:alpha" maskUnits="userSpaceOnUse" x="16" y="16" width="1546" height="828">
<path d="M1562 152C1562 76.8893 1501.11 16 1426 16L152 16.0001C76.8892 16.0001 15.9999 76.8894 15.9999 152L15.9999 817C15.9999 831.912 28.0882 844 43 844L1535 844C1549.91 844 1562 831.912 1562 817L1562 152Z" fill="white"/>
</mask>
<g mask="url(#mask0_60_47872)">
<g opacity="0.7" filter="url(#filter0_f_60_47872)">
<mask id="mask1_60_47872" style="mask-type:alpha" maskUnits="userSpaceOnUse" x="-543" y="-37" width="2693" height="2201">
<path d="M-541.934 -35.9434H2149.5V2163.15H-541.934V-35.9434Z" fill="white" stroke="url(#paint0_linear_60_47872)"/>
</mask>
<g mask="url(#mask1_60_47872)">
<g filter="url(#filter1_f_60_47872)">
<g filter="url(#filter2_f_60_47872)">
<path fill-rule="evenodd" clip-rule="evenodd" d="M719.804 719.659C717.297 867.367 811.021 1025.91 732.711 1140.65C643.714 1271.04 473.421 1338.4 344.697 1269.24C225.896 1205.41 250.2 1004.98 207.63 858.518C175.515 748.025 106.372 650.379 132.023 537.524C163.982 396.913 238.152 265.269 353.585 216.364C484.749 160.794 656.285 151.639 747.372 276.82C833.08 394.609 722.447 563.963 719.804 719.659Z" fill="#6D42F2"/>
</g>
<g filter="url(#filter3_f_60_47872)">
<path fill-rule="evenodd" clip-rule="evenodd" d="M1333.95 583.084C1331.45 730.792 1425.08 889.339 1346.85 1004.07C1257.94 1134.46 1087.81 1201.83 959.214 1132.66C840.531 1068.83 864.811 868.407 822.283 721.944C790.2 611.451 721.125 513.805 746.75 400.95C778.678 260.339 852.775 128.695 968.094 79.7895C1099.13 24.2196 1270.5 15.065 1361.49 140.245C1447.12 258.034 1336.59 427.389 1333.95 583.084Z" fill="#6D42F2"/>
</g>
<g filter="url(#filter4_f_60_47872)">
<path fill-rule="evenodd" clip-rule="evenodd" d="M601.117 454.18C598.61 601.888 692.334 760.435 614.024 875.169C525.027 1005.56 354.733 1072.92 226.009 1003.76C107.209 939.928 131.512 739.503 88.9428 593.04C56.8278 482.547 -12.3154 384.9 13.3353 272.045C45.2947 131.435 119.465 -0.209495 234.898 -49.1148C366.061 -104.685 537.598 -113.839 628.685 11.3411C714.393 129.13 603.759 298.484 601.117 454.18Z" fill="#6D42F2"/>
</g>
<g filter="url(#filter5_f_60_47872)">
<path fill-rule="evenodd" clip-rule="evenodd" d="M399.214 398.17C396.708 545.878 490.431 704.425 412.121 819.159C323.125 949.551 152.831 1016.91 24.1067 947.751C-94.6937 883.918 -70.39 683.493 -112.96 537.03C-145.075 426.537 -214.218 328.89 -188.567 216.036C-156.608 75.425 -82.4374 -56.2193 32.9954 -105.125C164.159 -160.694 335.696 -169.849 426.782 -44.6686C512.491 73.1202 401.857 242.475 399.214 398.17Z" fill="#6D42F2"/>
</g>
<g filter="url(#filter6_f_60_47872)">
<path fill-rule="evenodd" clip-rule="evenodd" d="M1162.06 86.6257C1111.32 272.353 854.47 142.357 711.349 238.196C621.612 298.288 630.242 527.506 528.175 511.098C428.323 495.046 468.759 300.248 425.254 192.204C382.019 84.8311 268.587 16.8531 281.637 -101.172C299.431 -262.103 367.724 -444.329 500.055 -484.311C633.758 -524.706 739.398 -369.515 851.06 -273.212C974.253 -166.966 1209.07 -85.4572 1162.06 86.6257Z" fill="#1A298E"/>
</g>
<g filter="url(#filter7_f_60_47872)">
<path fill-rule="evenodd" clip-rule="evenodd" d="M1463.56 -24.7618C1445.87 70.4702 1324.36 72.152 1262.6 139.831C1203.07 205.071 1198.33 335.558 1117.24 354.765C1032.68 374.794 938.733 311.248 894.978 226.906C855.716 151.222 925.796 62.796 920.35 -24.7618C913.956 -127.568 816.415 -224.905 861.3 -314.564C907.74 -407.33 1023.29 -425.416 1117.24 -418.055C1205.48 -411.141 1277.6 -347.975 1340.05 -277.054C1402.38 -206.269 1481.73 -122.579 1463.56 -24.7618Z" fill="#2653B0"/>
</g>
<g filter="url(#filter8_f_60_47872)">
<path fill-rule="evenodd" clip-rule="evenodd" d="M1272.69 993.13C1273.21 1126.72 1177.22 1225.72 1069.49 1263.12C972.149 1296.92 873.374 1248.11 810.136 1153.74C734.817 1041.34 669.841 888.892 740.679 772.44C811.705 655.677 953.048 683.384 1067.4 730.819C1172.2 774.292 1272.17 861.004 1272.69 993.13Z" fill="#5FCEF6"/>
</g>
<g filter="url(#filter9_f_60_47872)">
<path fill-rule="evenodd" clip-rule="evenodd" d="M1743.5 164.528C1740.99 312.337 1834.72 470.993 1756.41 585.806C1667.41 716.287 1497.12 783.697 1368.39 714.485C1249.59 650.61 1273.9 450.046 1231.33 303.483C1199.21 192.914 1130.07 95.201 1155.72 -17.7312C1187.68 -158.438 1261.85 -290.173 1377.28 -339.112C1508.44 -394.72 1679.98 -403.88 1771.07 -278.614C1856.78 -160.745 1746.14 8.7258 1743.5 164.528Z" fill="#6D42F2"/>
</g>
</g>
</g>
</g>
</g>
<defs>
<filter id="filter0_f_60_47872" x="-1194.16" y="-1036.44" width="3997.72" height="3333.3" filterUnits="userSpaceOnUse" color-interpolation-filters="sRGB">
<feFlood flood-opacity="0" result="BackgroundImageFix"/>
<feBlend mode="normal" in="SourceGraphic" in2="BackgroundImageFix" result="shape"/>
<feGaussianBlur stdDeviation="500" result="effect1_foregroundBlur_60_47872"/>
</filter>
<filter id="filter1_f_60_47872" x="-394.156" y="-690.881" width="2397.72" height="2187.73" filterUnits="userSpaceOnUse" color-interpolation-filters="sRGB">
<feFlood flood-opacity="0" result="BackgroundImageFix"/>
<feBlend mode="normal" in="SourceGraphic" in2="BackgroundImageFix" result="shape"/>
<feGaussianBlur stdDeviation="100" result="effect1_foregroundBlur_60_47872"/>
</filter>
<filter id="filter2_f_60_47872" x="-173.566" y="-122.588" width="1253.44" height="1719.44" filterUnits="userSpaceOnUse" color-interpolation-filters="sRGB">
<feFlood flood-opacity="0" result="BackgroundImageFix"/>
<feBlend mode="normal" in="SourceGraphic" in2="BackgroundImageFix" result="shape"/>
<feGaussianBlur stdDeviation="150" result="effect1_foregroundBlur_60_47872"/>
</filter>
<filter id="filter3_f_60_47872" x="441.166" y="-259.162" width="1252.79" height="1719.44" filterUnits="userSpaceOnUse" color-interpolation-filters="sRGB">
<feFlood flood-opacity="0" result="BackgroundImageFix"/>
<feBlend mode="normal" in="SourceGraphic" in2="BackgroundImageFix" result="shape"/>
<feGaussianBlur stdDeviation="150" result="effect1_foregroundBlur_60_47872"/>
</filter>
<filter id="filter4_f_60_47872" x="-292.254" y="-388.066" width="1253.44" height="1719.44" filterUnits="userSpaceOnUse" color-interpolation-filters="sRGB">
<feFlood flood-opacity="0" result="BackgroundImageFix"/>
<feBlend mode="normal" in="SourceGraphic" in2="BackgroundImageFix" result="shape"/>
<feGaussianBlur stdDeviation="150" result="effect1_foregroundBlur_60_47872"/>
</filter>
<filter id="filter5_f_60_47872" x="-494.156" y="-444.076" width="1253.44" height="1719.44" filterUnits="userSpaceOnUse" color-interpolation-filters="sRGB">
<feFlood flood-opacity="0" result="BackgroundImageFix"/>
<feBlend mode="normal" in="SourceGraphic" in2="BackgroundImageFix" result="shape"/>
<feGaussianBlur stdDeviation="150" result="effect1_foregroundBlur_60_47872"/>
</filter>
<filter id="filter6_f_60_47872" x="-19.4023" y="-790.881" width="1487.59" height="1602.82" filterUnits="userSpaceOnUse" color-interpolation-filters="sRGB">
<feFlood flood-opacity="0" result="BackgroundImageFix"/>
<feBlend mode="normal" in="SourceGraphic" in2="BackgroundImageFix" result="shape"/>
<feGaussianBlur stdDeviation="150" result="effect1_foregroundBlur_60_47872"/>
</filter>
<filter id="filter7_f_60_47872" x="549.533" y="-719.527" width="1216.67" height="1378.01" filterUnits="userSpaceOnUse" color-interpolation-filters="sRGB">
<feFlood flood-opacity="0" result="BackgroundImageFix"/>
<feBlend mode="normal" in="SourceGraphic" in2="BackgroundImageFix" result="shape"/>
<feGaussianBlur stdDeviation="150" result="effect1_foregroundBlur_60_47872"/>
</filter>
<filter id="filter8_f_60_47872" x="410.203" y="389.943" width="1162.48" height="1183.89" filterUnits="userSpaceOnUse" color-interpolation-filters="sRGB">
<feFlood flood-opacity="0" result="BackgroundImageFix"/>
<feBlend mode="normal" in="SourceGraphic" in2="BackgroundImageFix" result="shape"/>
<feGaussianBlur stdDeviation="150" result="effect1_foregroundBlur_60_47872"/>
</filter>
<filter id="filter9_f_60_47872" x="850.129" y="-678.09" width="1253.44" height="1720.21" filterUnits="userSpaceOnUse" color-interpolation-filters="sRGB">
<feFlood flood-opacity="0" result="BackgroundImageFix"/>
<feBlend mode="normal" in="SourceGraphic" in2="BackgroundImageFix" result="shape"/>
<feGaussianBlur stdDeviation="150" result="effect1_foregroundBlur_60_47872"/>
</filter>
<linearGradient id="paint0_linear_60_47872" x1="2188.16" y1="786.403" x2="1516.53" y2="2451.2" gradientUnits="userSpaceOnUse">
<stop stop-color="white"/>
<stop offset="1" stop-color="white" stop-opacity="0.6"/>
</linearGradient>
</defs>
</svg>
