<svg width="18" height="21" viewBox="0 0 18 21" fill="none" xmlns="http://www.w3.org/2000/svg">
<path d="M2.71278 0.882812C2.15699 0.882812 1.62397 1.13477 1.23097 1.58326C0.837972 2.03176 0.617188 2.64004 0.617188 3.27431V5.17634C0.617188 6.00539 0.994393 6.77386 1.6105 7.20911L7.01153 11.0196C6.19001 11.5247 5.53972 12.3283 5.16369 13.3029C4.78767 14.2776 4.70742 15.3675 4.93567 16.4001C5.16392 17.4327 5.68761 18.3489 6.42375 19.0033C7.15989 19.6578 8.06637 20.0132 8.99954 20.0132C9.93271 20.0132 10.8392 19.6578 11.5753 19.0033C12.3115 18.3489 12.8352 17.4327 13.0634 16.4001C13.2917 15.3675 13.2114 14.2776 12.8354 13.3029C12.4594 12.3283 11.8091 11.5247 10.9876 11.0196L16.3886 7.20911C16.6921 6.99486 16.9427 6.69568 17.1166 6.33993C17.2904 5.98418 17.3817 5.58366 17.3819 5.17634V3.27431C17.3819 2.64004 17.1611 2.03176 16.7681 1.58326C16.3751 1.13477 15.8421 0.882813 15.2863 0.882812H2.71278ZM6.20542 8.57704V2.47714H11.7937V8.57704L9.36697 10.2894C9.25657 10.3673 9.12934 10.4085 8.99954 10.4085C8.86974 10.4085 8.74251 10.3673 8.63212 10.2894L6.20542 8.57704ZM8.99954 12.0431C9.74059 12.0431 10.4513 12.3791 10.9753 12.9771C11.4993 13.575 11.7937 14.3861 11.7937 15.2318C11.7937 16.0775 11.4993 16.8885 10.9753 17.4865C10.4513 18.0845 9.74059 18.4204 8.99954 18.4204C8.2585 18.4204 7.5478 18.0845 7.0238 17.4865C6.4998 16.8885 6.20542 16.0775 6.20542 15.2318C6.20542 14.3861 6.4998 13.575 7.0238 12.9771C7.5478 12.3791 8.2585 12.0431 8.99954 12.0431Z" fill="#303030"/>
</svg>
