<svg width="35" height="34" viewBox="0 0 35 34" fill="none" xmlns="http://www.w3.org/2000/svg">
<g id="Iconsax/Bold/pointer">
<path id="Vector" d="M17.5052 31.168C25.3252 31.168 31.6719 24.8213 31.6719 17.0013C31.6719 9.1813 25.3252 2.83463 17.5052 2.83463C9.6852 2.83463 3.33854 9.1813 3.33854 17.0013C3.33854 24.8213 9.68521 31.168 17.5052 31.168ZM11.626 15.8255L14.0769 15.0038C14.7569 14.7771 15.281 14.253 15.5077 13.573L16.3294 11.1221C17.0235 9.0113 19.9985 9.0538 20.6502 11.1646L23.4127 20.0613C23.951 21.8321 22.3219 23.4613 20.5794 22.923L11.6685 20.1605C9.55771 19.4946 9.52937 16.5196 11.626 15.8255Z" fill="white"/>
</g>
</svg>
