<svg width="34" height="34" viewBox="0 0 34 34" fill="none" xmlns="http://www.w3.org/2000/svg">
<g id="Iconsax/Bold/pointer">
<path id="Vector" d="M16.9948 2.83203C9.17479 2.83203 2.82812 9.1787 2.82812 16.9987C2.82812 24.8187 9.17479 31.1654 16.9948 31.1654C24.8148 31.1654 31.1615 24.8187 31.1615 16.9987C31.1615 9.1787 24.8148 2.83203 16.9948 2.83203ZM22.874 18.1745L20.4231 18.9962C19.7431 19.2229 19.219 19.747 18.9923 20.427L18.1706 22.8779C17.4765 24.9887 14.5015 24.9462 13.8498 22.8354L11.0873 13.9387C10.549 12.1679 12.1781 10.5387 13.9206 11.077L22.8315 13.8395C24.9423 14.5054 24.9706 17.4804 22.874 18.1745Z" fill="white"/>
</g>
</svg>
